<svg width="2016" height="531" viewBox="0 0 2016 531" fill="none" xmlns="http://www.w3.org/2000/svg">
    <path d="M65.291 178.283V524.719H0.569336V122.424H60.1885L65.291 178.283ZM254.622 265.026V270.666C254.622 291.792 252.116 311.397 247.103 329.479C242.269 347.383 235.018 363.049 225.35 376.477C215.861 389.725 204.134 400.02 190.169 407.36C176.204 414.701 160.091 418.371 141.829 418.371C123.746 418.371 107.902 415.059 94.2949 408.435C80.8672 401.631 69.4984 392.053 60.1885 379.699C50.8786 367.346 43.359 352.844 37.6299 336.193C32.0798 319.364 28.141 300.923 25.8135 280.871V259.118C28.141 237.813 32.0798 218.477 37.6299 201.11C43.359 183.744 50.8786 168.794 60.1885 156.262C69.4984 143.729 80.8672 134.061 94.2949 127.258C107.723 120.454 123.388 117.053 141.292 117.053C159.554 117.053 175.757 120.633 189.9 127.795C204.044 134.777 215.95 144.803 225.618 157.873C235.286 170.764 242.537 186.34 247.371 204.602C252.205 222.684 254.622 242.826 254.622 265.026ZM189.9 270.666V265.026C189.9 251.599 188.647 239.156 186.141 227.697C183.634 216.06 179.695 205.855 174.324 197.082C168.953 188.309 162.06 181.506 153.646 176.672C145.41 171.659 135.473 169.152 123.836 169.152C112.378 169.152 102.531 171.122 94.2949 175.061C86.0592 178.82 79.1663 184.102 73.6162 190.905C68.0661 197.709 63.7692 205.676 60.7256 214.807C57.682 223.758 55.5335 233.516 54.2803 244.079V296.179C56.4287 309.069 60.099 320.886 65.291 331.628C70.4831 342.37 77.8236 350.964 87.3125 357.409C96.9805 363.675 109.334 366.809 124.373 366.809C136.01 366.809 145.947 364.302 154.183 359.289C162.418 354.276 169.132 347.383 174.324 338.61C179.695 329.659 183.634 319.364 186.141 307.727C188.647 296.089 189.9 283.736 189.9 270.666ZM500.994 354.724V216.149C500.994 205.765 499.114 196.813 495.354 189.294C491.595 181.774 485.866 175.956 478.167 171.838C470.647 167.72 461.159 165.661 449.7 165.661C439.137 165.661 430.006 167.451 422.308 171.032C414.609 174.613 408.611 179.447 404.314 185.534C400.018 191.621 397.869 198.514 397.869 206.213H333.416C333.416 194.755 336.191 183.654 341.741 172.912C347.291 162.17 355.348 152.591 365.911 144.177C376.474 135.762 389.096 129.138 403.777 124.304C418.458 119.47 434.93 117.053 453.191 117.053C475.034 117.053 494.37 120.723 511.199 128.063C528.208 135.404 541.546 146.504 551.214 161.364C561.061 176.045 565.984 194.486 565.984 216.687V345.861C565.984 359.11 566.88 371.016 568.67 381.579C570.639 391.963 573.414 401.005 576.995 408.703V413H510.662C507.618 406.018 505.201 397.155 503.411 386.413C501.8 375.492 500.994 364.929 500.994 354.724ZM510.394 236.291L510.931 276.306H464.471C452.475 276.306 441.912 277.469 432.781 279.797C423.65 281.945 416.041 285.168 409.954 289.465C403.867 293.762 399.301 298.954 396.258 305.041C393.214 311.128 391.692 318.021 391.692 325.72C391.692 333.418 393.483 340.49 397.063 346.936C400.644 353.202 405.836 358.125 412.64 361.706C419.622 365.287 428.037 367.077 437.884 367.077C451.132 367.077 462.68 364.392 472.527 359.021C482.553 353.47 490.431 346.757 496.16 338.879C501.889 330.822 504.933 323.213 505.291 316.052L526.238 344.787C524.09 352.128 520.42 360.005 515.228 368.42C510.035 376.835 503.232 384.891 494.817 392.59C486.582 400.109 476.645 406.286 465.008 411.12C453.549 415.954 440.301 418.371 425.262 418.371C406.284 418.371 389.365 414.611 374.505 407.092C359.645 399.393 348.007 389.099 339.593 376.208C331.178 363.138 326.971 348.368 326.971 331.896C326.971 316.499 329.835 302.893 335.564 291.076C341.473 279.081 350.066 269.055 361.346 260.998C372.804 252.941 386.769 246.854 403.24 242.736C419.712 238.439 438.51 236.291 459.637 236.291H510.394ZM741.189 381.311L820.145 122.424H889.432L772.879 457.312C770.193 464.473 766.702 472.261 762.405 480.676C758.108 489.09 752.469 497.058 745.486 504.577C738.683 512.276 730.179 518.452 719.974 523.107C709.769 527.941 697.415 530.358 682.913 530.358C677.184 530.358 671.634 529.821 666.263 528.747C661.071 527.852 656.147 526.867 651.492 525.793L651.224 476.379C653.014 476.558 655.162 476.737 657.669 476.916C660.354 477.095 662.503 477.185 664.114 477.185C674.856 477.185 683.808 475.842 690.97 473.156C698.131 470.65 703.95 466.532 708.426 460.803C713.081 455.074 717.02 447.375 720.242 437.707L741.189 381.311ZM696.609 122.424L765.628 339.953L777.176 408.166L732.327 419.714L626.785 122.424H696.609ZM954.261 0.5H1018.98V350.964L1012.81 413H954.261V0.5ZM1208.58 265.026V270.666C1208.58 292.15 1206.17 311.934 1201.33 330.017C1196.68 347.92 1189.51 363.496 1179.85 376.745C1170.36 389.994 1158.54 400.288 1144.4 407.629C1130.43 414.79 1114.23 418.371 1095.79 418.371C1077.71 418.371 1061.95 414.969 1048.52 408.166C1035.1 401.363 1023.82 391.695 1014.69 379.162C1005.73 366.63 998.483 351.68 992.933 334.313C987.382 316.947 983.444 297.79 981.116 276.843V258.85C983.444 237.723 987.382 218.566 992.933 201.379C998.483 184.012 1005.73 169.063 1014.69 156.53C1023.82 143.819 1035.01 134.061 1048.25 127.258C1061.68 120.454 1077.35 117.053 1095.25 117.053C1113.87 117.053 1130.25 120.633 1144.4 127.795C1158.72 134.956 1170.63 145.161 1180.12 158.41C1189.6 171.48 1196.68 187.056 1201.33 205.139C1206.17 223.221 1208.58 243.184 1208.58 265.026ZM1143.86 270.666V265.026C1143.86 251.957 1142.79 239.693 1140.64 228.234C1138.49 216.597 1134.91 206.392 1129.9 197.619C1125.06 188.846 1118.44 181.953 1110.02 176.94C1101.79 171.748 1091.49 169.152 1079.14 169.152C1067.68 169.152 1057.83 171.122 1049.6 175.061C1041.36 178.999 1034.47 184.37 1028.92 191.174C1023.37 197.977 1018.98 205.855 1015.76 214.807C1012.72 223.758 1010.66 233.426 1009.58 243.811V292.419C1011.19 305.847 1014.6 318.2 1019.79 329.479C1025.16 340.58 1032.68 349.532 1042.35 356.335C1052.01 362.959 1064.46 366.271 1079.68 366.271C1091.67 366.271 1101.79 363.854 1110.02 359.021C1118.26 354.187 1124.79 347.473 1129.63 338.879C1134.64 330.106 1138.22 319.901 1140.37 308.264C1142.7 296.626 1143.86 284.094 1143.86 270.666ZM1454.69 354.724V216.149C1454.69 205.765 1452.81 196.813 1449.05 189.294C1445.29 181.774 1439.56 175.956 1431.86 171.838C1424.34 167.72 1414.85 165.661 1403.39 165.661C1392.83 165.661 1383.7 167.451 1376 171.032C1368.3 174.613 1362.3 179.447 1358.01 185.534C1353.71 191.621 1351.56 198.514 1351.56 206.213H1287.11C1287.11 194.755 1289.88 183.654 1295.43 172.912C1300.98 162.17 1309.04 152.591 1319.6 144.177C1330.17 135.762 1342.79 129.138 1357.47 124.304C1372.15 119.47 1388.62 117.053 1406.88 117.053C1428.73 117.053 1448.06 120.723 1464.89 128.063C1481.9 135.404 1495.24 146.504 1504.91 161.364C1514.75 176.045 1519.68 194.486 1519.68 216.687V345.861C1519.68 359.11 1520.57 371.016 1522.36 381.579C1524.33 391.963 1527.11 401.005 1530.69 408.703V413H1464.35C1461.31 406.018 1458.89 397.155 1457.1 386.413C1455.49 375.492 1454.69 364.929 1454.69 354.724ZM1464.08 236.291L1464.62 276.306H1418.16C1406.17 276.306 1395.6 277.469 1386.47 279.797C1377.34 281.945 1369.73 285.168 1363.65 289.465C1357.56 293.762 1352.99 298.954 1349.95 305.041C1346.91 311.128 1345.38 318.021 1345.38 325.72C1345.38 333.418 1347.17 340.49 1350.75 346.936C1354.34 353.202 1359.53 358.125 1366.33 361.706C1373.31 365.287 1381.73 367.077 1391.58 367.077C1404.82 367.077 1416.37 364.392 1426.22 359.021C1436.24 353.47 1444.12 346.757 1449.85 338.879C1455.58 330.822 1458.62 323.213 1458.98 316.052L1479.93 344.787C1477.78 352.128 1474.11 360.005 1468.92 368.42C1463.73 376.835 1456.92 384.891 1448.51 392.59C1440.27 400.109 1430.34 406.286 1418.7 411.12C1407.24 415.954 1393.99 418.371 1378.95 418.371C1359.98 418.371 1343.06 414.611 1328.2 407.092C1313.34 399.393 1301.7 389.099 1293.28 376.208C1284.87 363.138 1280.66 348.368 1280.66 331.896C1280.66 316.499 1283.53 302.893 1289.26 291.076C1295.16 279.081 1303.76 269.055 1315.04 260.998C1326.5 252.941 1340.46 246.854 1356.93 242.736C1373.4 238.439 1392.2 236.291 1413.33 236.291H1464.08ZM1742.95 418.371C1721.47 418.371 1702.04 414.88 1684.68 407.897C1667.49 400.736 1652.81 390.799 1640.63 378.088C1628.64 365.376 1619.42 350.427 1612.97 333.239C1606.53 316.052 1603.3 297.521 1603.3 277.648V266.906C1603.3 244.169 1606.62 223.579 1613.24 205.139C1619.86 186.698 1629.08 170.943 1640.9 157.873C1652.72 144.624 1666.68 134.509 1682.8 127.526C1698.91 120.544 1716.37 117.053 1735.16 117.053C1755.93 117.053 1774.1 120.544 1789.68 127.526C1805.26 134.509 1818.15 144.356 1828.35 157.067C1838.74 169.6 1846.44 184.549 1851.45 201.916C1856.64 219.283 1859.24 238.439 1859.24 259.387V287.048H1634.72V240.588H1795.32V235.485C1794.96 223.848 1792.63 212.927 1788.34 202.722C1784.22 192.517 1777.86 184.281 1769.27 178.015C1760.68 171.748 1749.22 168.615 1734.9 168.615C1724.15 168.615 1714.57 170.943 1706.16 175.598C1697.92 180.074 1691.03 186.608 1685.48 195.202C1679.93 203.796 1675.63 214.18 1672.59 226.354C1669.73 238.35 1668.29 251.867 1668.29 266.906V277.648C1668.29 290.36 1669.99 302.176 1673.4 313.098C1676.98 323.84 1682.17 333.239 1688.97 341.296C1695.78 349.353 1704.01 355.708 1713.68 360.363C1723.35 364.839 1734.36 367.077 1746.71 367.077C1762.29 367.077 1776.16 363.944 1788.34 357.678C1800.51 351.411 1811.08 342.549 1820.03 331.091L1854.13 364.123C1847.87 373.254 1839.72 382.027 1829.7 390.441C1819.67 398.677 1807.41 405.391 1792.9 410.583C1778.58 415.775 1761.93 418.371 1742.95 418.371Z" fill="#191137" />
    <path d="M1939.91 380.773C1939.91 370.747 1943.31 362.333 1950.12 355.529C1956.92 348.547 1966.14 345.056 1977.78 345.056C1989.59 345.056 1998.81 348.547 2005.44 355.529C2012.24 362.333 2015.64 370.747 2015.64 380.773C2015.64 390.799 2012.24 399.214 2005.44 406.018C1998.81 412.821 1989.59 416.223 1977.78 416.223C1966.14 416.223 1956.92 412.821 1950.12 406.018C1943.31 399.214 1939.91 390.799 1939.91 380.773Z" fill="#FF9900" />
</svg>